<svg xmlns="http://www.w3.org/2000/svg" width="23" height="23" viewBox="0 0 23 23">
    <path fill="#FFFFFE" fill-rule="evenodd" d="M20.668 22.703a11.76 11.76 0 0 1-2.647.297c-4.944-.007-10.332-2.954-14.075-7.705C.662 11.118-.665 6.39.316 2.325.572 1.273 3.142 0 4.267 0c.521 0 .804.226.952.417.156.205 2.882 4.361 3.036 4.63.595 1.024-.43 1.71-1.052 2.126-1.073.715-2.082 1.393-1.15 3.357.014.03 1.03 2.2 2.677 3.754 1.582 1.676 3.736 2.68 3.757 2.693.501.233.932.354 1.3.354.825 0 1.257-.58 1.828-1.47.416-.65.847-1.315 1.623-1.315.262 0 .516.078.763.24.043.029 4.38 2.856 4.583 3.012.381.29.501.785.36 1.477-.205.933-1.265 3.195-2.275 3.428z"/>
</svg>
