<?xml version="1.0" encoding="UTF-8"?><!DOCTYPE svg PUBLIC "-//W3C//DTD SVG 1.1//EN" "http://www.w3.org/Graphics/SVG/1.1/DTD/svg11.dtd"><svg xmlns="http://www.w3.org/2000/svg"><symbol id="icon-facebook" viewBox="0 0 17 17">
    <path fill-opacity=".497" d="M1.889 0H15.11A1.89 1.89 0 0 1 17 1.889V15.11A1.889 1.889 0 0 1 15.111 17H1.89A1.889 1.889 0 0 1 0 15.111V1.89A1.89 1.89 0 0 1 1.889 0zm12.278 1.889h-2.361A3.306 3.306 0 0 0 8.5 5.194v2.362H6.611v2.833H8.5V17h2.833v-6.611h2.834V7.556h-2.834v-1.89c0-.52.423-.944.945-.944h1.889V1.89z"/>
</symbol><symbol id="icon-fill-2" viewBox="0 0 23 23">
    <path fill-rule="evenodd" d="M20.668 22.703a11.76 11.76 0 0 1-2.647.297c-4.944-.007-10.332-2.954-14.075-7.705C.662 11.118-.665 6.39.316 2.325.572 1.273 3.142 0 4.267 0c.521 0 .804.226.952.417.156.205 2.882 4.361 3.036 4.63.595 1.024-.43 1.71-1.052 2.126-1.073.715-2.082 1.393-1.15 3.357.014.03 1.03 2.2 2.677 3.754 1.582 1.676 3.736 2.68 3.757 2.693.501.233.932.354 1.3.354.825 0 1.257-.58 1.828-1.47.416-.65.847-1.315 1.623-1.315.262 0 .516.078.763.24.043.029 4.38 2.856 4.583 3.012.381.29.501.785.36 1.477-.205.933-1.265 3.195-2.275 3.428z"/>
</symbol><symbol id="icon-inst" viewBox="0 0 18 18">
    <path fill-opacity=".496" d="M5.22 0h7.56C15.66 0 18 2.34 18 5.22v7.56A5.22 5.22 0 0 1 12.78 18H5.22C2.34 18 0 15.66 0 12.78V5.22A5.22 5.22 0 0 1 5.22 0zm-.18 1.8A3.24 3.24 0 0 0 1.8 5.04v7.92a3.238 3.238 0 0 0 3.24 3.24h7.92a3.24 3.24 0 0 0 3.24-3.24V5.04a3.238 3.238 0 0 0-3.24-3.24H5.04zm8.685 1.35a1.125 1.125 0 1 1 0 2.25 1.125 1.125 0 0 1 0-2.25zM9 4.5a4.5 4.5 0 1 1 0 9 4.5 4.5 0 0 1 0-9zm0 1.8a2.7 2.7 0 1 0 0 5.4 2.7 2.7 0 0 0 0-5.4z"/>
</symbol></svg>